<?xml version="1.0"?>
<svg version="1.1" xmlns="http://www.w3.org/2000/svg" width="400" height="200" style="border: dashed 2px #aaa"><path fill="#000000" d="M33.48,112.88l0-14l-0.84,2.1l-4.34,8.82l-2.24,0.14l-4.34-9.1l-0.7-1.96l0,14l2.66,0.56l0,1.68l-7.56,0l0-1.68l2.38-0.56l0-15.12l-2.38-0.56l0-1.54l6.3-0.14l5.068,11.2l5.292-11.06l5.88-0.14l0,1.68l-2.38,0.56l0,15.12l2.38,0.56l0,1.68l-7.84,0l0-1.68z M48.4208,103.78l6.44,0l0,2.24l-6.44,0l0,6.86l6.44,0l0.56-2.8l1.82,0l0,5.04l-14.14,0l0-1.68l2.38-0.56l0-15.12l-2.38-0.56l0-1.54l5.32-0.14l8.54,0l0,4.76l-1.82,0l-0.7-2.52l-6.02,0l0,6.02z M79.3216,112.88l0-14l-0.84,2.1l-4.34,8.82l-2.24,0.14l-4.34-9.1l-0.7-1.96l0,14l2.66,0.56l0,1.68l-7.56,0l0-1.68l2.38-0.56l0-15.12l-2.38-0.56l0-1.54l6.3-0.14l5.068,11.2l5.292-11.06l5.88-0.14l0,1.68l-2.38,0.56l0,15.12l2.38,0.56l0,1.68l-7.84,0l0-1.68z M94.2624,103.78l6.44,0l0,2.24l-6.44,0l0,6.86l6.44,0l0.56-2.8l1.82,0l0,5.04l-14.14,0l0-1.68l2.38-0.56l0-15.12l-2.38-0.56l0-1.54l5.32-0.14l8.54,0l0,4.76l-1.82,0l-0.7-2.52l-6.02,0l0,6.02z M132.824,107.728l0,5.992s-2.968,1.68-7.14,1.68c-5.6,0-8.96-3.36-8.96-9.66c0-6.44,3.64-10.5,9.38-10.5c3.08,0,6.3,1.4,6.3,1.4l-0.14,4.62l-1.82,0l-0.84-3.08s-1.68-0.56-3.78-0.56c-3.78,0-5.88,2.8-5.88,7.98c0,5.04,2.52,7.42,6.16,7.42c1.96,0,3.92-0.7,3.92-0.7l0-4.592l-2.38-0.56l0-1.54l7.28-0.14l0,1.68z M144.6848,103.78l6.44,0l0,2.24l-6.44,0l0,6.86l6.44,0l0.56-2.8l1.82,0l0,5.04l-14.14,0l0-1.68l2.38-0.56l0-15.12l-2.38-0.56l0-1.54l5.32-0.14l8.54,0l0,4.76l-1.82,0l-0.7-2.52l-6.02,0l0,6.02z M163.1256,112.88l2.66,0.56l0,1.68l-7.56,0l0-1.68l2.38-0.56l0-15.12l-2.38-0.56l0-1.54l5.88-0.14l9.24,15.652l0-13.412l-2.38-0.56l0-1.54l7.28-0.14l0,1.68l-2.38,0.56l0,17.36l-3.5,0l-9.24-15.428l0,13.188z"/><path fill="#696969" d=""/></svg>
